<svg width="521" height="314" viewBox="0 0 521 314" fill="none" xmlns="http://www.w3.org/2000/svg">
<path d="M45.272 48.944C46.488 48.944 47.384 49.424 47.96 50.384C48.6 51.28 48.92 52.272 48.92 53.36C48.92 54.704 48.696 55.664 48.248 56.24C47.864 56.752 47.096 57.296 45.944 57.872C43.256 59.152 39.928 60.176 35.96 60.944C31.992 61.712 27.736 62.096 23.192 62.096C17.496 62.096 13.304 61.136 10.616 59.216C7.992 57.296 6.36 54.992 5.72 52.304C5.144 49.552 4.856 45.968 4.856 41.552C4.856 36.816 5.048 32.176 5.432 27.632C5.816 23.024 6.488 17.168 7.448 10.064C7.896 6.992 9.112 4.784 11.096 3.44C13.08 2.032 15.256 1.328 17.624 1.328C19.608 1.328 22.84 1.264 27.32 1.136L35.672 1.04C39.128 1.04 41.624 1.136 43.16 1.328C45.08 1.712 46.488 2.16 47.384 2.672C48.344 3.12 48.824 3.92 48.824 5.07199C48.824 6.352 48.376 7.6 47.48 8.816C46.648 10.032 45.368 10.64 43.64 10.64C41.656 10.64 38.808 10.512 35.096 10.256C31.384 10 28.6 9.872 26.744 9.872C25.144 9.872 23.576 9.968 22.04 10.16C20.248 10.288 18.968 10.512 18.2 10.832C17.432 11.152 16.984 11.696 16.856 12.464C15.96 19.056 15.512 23.92 15.512 27.056C16.984 27.248 18.424 27.344 19.832 27.344C21.624 27.344 23.544 27.248 25.592 27.056C27.64 26.864 28.952 26.736 29.528 26.672C32.92 26.352 35.832 26.192 38.264 26.192C39.672 26.192 40.728 26.448 41.432 26.96C42.2 27.472 42.584 28.176 42.584 29.072C42.584 30.48 42.2 31.568 41.432 32.336C40.728 33.104 39.448 33.68 37.592 34.064C35.352 34.512 32.568 34.864 29.24 35.12C25.976 35.376 22.776 35.504 19.64 35.504C18.552 35.504 17.048 35.44 15.128 35.312C14.936 39.216 14.84 42.832 14.84 46.16C14.84 50.704 17.848 52.976 23.864 52.976C27.064 52.976 29.72 52.752 31.832 52.304C33.944 51.856 36.376 51.216 39.128 50.384C41.688 49.424 43.736 48.944 45.272 48.944ZM88.1923 19.664C89.4723 19.664 90.4643 19.984 91.1683 20.624C91.9363 21.2 92.3203 21.936 92.3203 22.832C92.3203 23.472 92.1923 24.144 91.9363 24.848C91.7443 25.488 91.5203 26.16 91.2643 26.864C89.7923 30.32 86.6883 35.152 81.9523 41.36C86.8163 47.632 90.7523 51.664 93.7603 53.456C94.0163 53.584 94.4963 53.808 95.2003 54.128C95.9043 54.448 96.4483 54.832 96.8323 55.28C97.2803 55.728 97.5043 56.24 97.5043 56.816C97.5043 58.224 96.9603 59.376 95.8723 60.272C94.8483 61.104 93.6003 61.52 92.1283 61.52C89.6323 61.52 86.9123 60.144 83.9683 57.392C81.0243 54.576 78.5283 51.632 76.4803 48.56C75.0083 50.8 73.3123 53.04 71.3923 55.28C69.5363 57.456 67.8083 59.312 66.2083 60.848C65.5683 61.552 64.8003 62.096 63.9043 62.48C63.0723 62.864 62.2403 63.056 61.4083 63.056C60.2563 63.056 59.2323 62.8 58.3363 62.288C57.4403 61.776 56.9922 60.88 56.9922 59.6C56.9922 59.28 57.2163 58.768 57.6643 58.064C58.1123 57.296 58.3683 56.848 58.4323 56.72C59.2003 55.376 60.2243 54 61.5043 52.592C62.7843 51.12 63.5843 50.192 63.9043 49.808C64.6723 48.848 65.5043 47.92 66.4003 47.024C66.9123 46.448 67.6803 45.552 68.7043 44.336C69.7283 43.12 70.4323 42.16 70.8163 41.456L67.4563 36.848C65.8563 34.992 64.4803 33.52 63.3282 32.432C62.1763 31.28 61.2483 30.704 60.5443 30.704C59.5203 30.704 58.5603 30.992 57.6643 31.568C56.8963 32.08 56.1283 32.336 55.3603 32.336C54.5283 32.336 53.8883 32.144 53.4403 31.76C52.9923 31.312 52.7683 30.832 52.7683 30.32C52.7683 28.144 53.6323 26.288 55.3603 24.752C57.0883 23.152 59.2643 22.352 61.8883 22.352C64.3843 22.352 66.5923 23.216 68.5123 24.944C70.4963 26.608 72.4483 28.848 74.3683 31.664C74.6243 31.92 74.9123 32.336 75.2323 32.912C75.5523 33.488 75.8723 33.968 76.1923 34.352C76.8963 33.328 78.1763 31.344 80.0323 28.4C82.0163 24.88 83.2003 22.864 83.5843 22.352C84.9283 20.56 86.4643 19.664 88.1923 19.664ZM102.22 29.264C101.58 28.368 101.132 27.6 100.876 26.96C100.62 26.32 100.492 25.52 100.492 24.56C100.492 23.536 100.908 22.672 101.74 21.968C102.636 21.264 103.756 20.912 105.1 20.912C106.444 20.912 107.788 21.424 109.132 22.448C110.476 23.408 111.564 24.656 112.396 26.192C113.74 24.272 115.564 22.896 117.868 22.064C120.172 21.232 122.668 20.816 125.356 20.816C128.3 20.816 131.02 21.712 133.516 23.504C136.076 25.296 138.092 27.6 139.564 30.416C141.036 33.232 141.772 36.048 141.772 38.864C141.772 41.616 141.484 44.08 140.908 46.256C140.332 48.368 139.308 50.512 137.836 52.688C136.172 54.992 133.932 56.88 131.116 58.352C128.364 59.824 125.068 60.56 121.228 60.56C120.204 60.56 118.956 60.304 117.484 59.792C116.012 59.216 114.796 58.608 113.836 57.968C113.388 62.32 113.164 66.096 113.164 69.296C113.164 71.216 113.26 73.04 113.452 74.768C113.58 76.816 113.644 78.288 113.644 79.184C113.644 80.592 113.164 81.616 112.204 82.256C111.244 82.96 110.188 83.312 109.036 83.312C106.732 83.312 105.196 82.672 104.428 81.392C103.724 80.176 103.372 78.416 103.372 76.112C103.628 70.608 103.948 65.52 104.332 60.848C104.78 54.128 105.004 45.872 105.004 36.08C105.004 35.312 104.684 34.192 104.044 32.72C103.468 31.248 102.86 30.096 102.22 29.264ZM114.22 48.464C114.54 49.68 115.436 50.704 116.908 51.536C118.444 52.304 119.82 52.688 121.036 52.688C124.684 52.688 127.404 51.696 129.196 49.712C130.54 48.304 131.404 46.928 131.788 45.584C132.236 44.24 132.46 42.096 132.46 39.152C132.46 36.848 132.012 34.928 131.116 33.392C130.22 31.792 129.132 30.64 127.852 29.936C126.572 29.168 125.356 28.784 124.204 28.784C121.58 28.784 119.436 29.584 117.772 31.184C116.172 32.72 115.148 34.832 114.7 37.52C114.38 39.632 114.22 43.28 114.22 48.464ZM149.851 41.648C149.851 39.216 150.299 36.784 151.195 34.352C152.091 31.856 153.275 29.584 154.747 27.536C156.219 25.488 158.555 23.824 161.755 22.544C164.955 21.2 167.803 20.528 170.299 20.528C172.859 20.528 175.451 20.88 178.075 21.584C180.763 22.288 182.619 23.376 183.643 24.848C186.011 28.176 187.195 31.44 187.195 34.64C187.195 36.368 186.811 37.84 186.043 39.056C185.339 40.272 184.315 41.584 182.971 42.992C181.883 44.144 180.155 44.912 177.787 45.296C175.483 45.68 173.179 45.872 170.875 45.872C169.403 45.872 167.611 45.744 165.499 45.488C163.387 45.168 161.339 44.784 159.355 44.336C159.483 45.616 159.803 46.864 160.315 48.08C160.827 49.296 161.435 50.224 162.139 50.864C163.419 52.08 164.731 52.848 166.075 53.168C167.483 53.488 169.275 53.648 171.451 53.648C173.755 53.648 175.899 53.264 177.883 52.496C179.483 51.92 180.795 51.632 181.819 51.632C183.035 51.632 183.963 52.016 184.603 52.784C185.243 53.488 185.563 54.416 185.563 55.568C185.563 57.168 184.635 58.48 182.779 59.504C180.923 60.528 178.779 61.296 176.347 61.808C173.979 62.256 172.059 62.48 170.587 62.48C167.579 62.48 164.667 61.936 161.851 60.848C159.035 59.76 156.699 58.224 154.843 56.24C153.307 54.448 152.091 52.304 151.195 49.808C150.299 47.248 149.851 44.528 149.851 41.648ZM170.779 28.688C169.371 28.688 167.963 28.976 166.555 29.552C165.147 30.064 163.995 30.8 163.099 31.76C161.947 32.976 161.147 33.968 160.699 34.736C160.315 35.44 160.059 36.432 159.931 37.712C161.531 38.224 164.859 38.48 169.915 38.48C172.667 38.48 174.779 38.064 176.251 37.232C177.787 36.4 178.555 35.312 178.555 33.968C178.555 32.624 177.723 31.408 176.059 30.32C174.395 29.232 172.635 28.688 170.779 28.688ZM209.713 58.16C209.585 59.248 209.137 60.208 208.369 61.04C207.601 61.872 206.609 62.288 205.393 62.288C203.473 62.288 202.065 61.936 201.169 61.232C200.273 60.464 199.825 59.088 199.825 57.104C199.825 54.416 199.985 51.472 200.305 48.272C200.561 44.56 200.689 41.712 200.689 39.728C200.689 38.704 200.625 37.424 200.497 35.888C200.369 34.48 200.305 33.424 200.305 32.72C200.113 31.632 199.665 30.768 198.961 30.128C198.321 29.488 197.297 28.944 195.889 28.496C195.313 28.24 194.833 27.824 194.449 27.248C194.065 26.608 193.873 26.032 193.873 25.52C193.873 24.048 194.449 22.928 195.601 22.16C196.753 21.392 198.161 21.008 199.825 21.008C201.681 21.008 203.281 21.648 204.625 22.928C205.969 24.208 206.993 25.808 207.697 27.728C209.169 25.616 210.961 23.92 213.073 22.64C215.249 21.36 217.361 20.72 219.409 20.72C222.033 20.72 224.241 21.168 226.033 22.064C227.889 22.896 228.817 24.368 228.817 26.48C228.817 27.696 228.273 28.976 227.185 30.32C226.161 31.6 225.105 32.24 224.017 32.24C223.185 32.24 222.193 31.856 221.041 31.088C220.593 30.768 220.081 30.512 219.505 30.32C218.993 30.064 218.449 29.936 217.873 29.936C216.849 29.936 215.889 30.096 214.993 30.416C214.097 30.736 213.489 31.12 213.169 31.568C212.145 33.168 211.377 34.608 210.865 35.888C210.417 37.168 210.193 38.544 210.193 40.016C210.193 41.104 210.161 41.968 210.097 42.608L210.001 48.08L210.097 51.728C210.097 54.416 209.969 56.56 209.713 58.16ZM239.422 0.367998C241.662 0.559996 243.614 1.168 245.278 2.192C246.942 3.152 247.774 4.624 247.774 6.608C247.774 8.08 247.07 9.264 245.662 10.16C244.318 10.992 242.686 11.408 240.766 11.408C238.91 11.408 237.63 10.928 236.926 9.96799C236.222 9.008 235.87 8.016 235.87 6.992C235.87 5.072 236.062 3.472 236.446 2.192C236.894 0.911999 237.886 0.303999 239.422 0.367998ZM247.102 42.896V45.68C247.102 48.176 247.166 50.544 247.294 52.784C247.486 54.96 247.71 57.168 247.966 59.408C247.966 60.176 247.518 60.88 246.622 61.52C245.726 62.096 244.894 62.384 244.126 62.384C242.91 62.384 241.662 62.16 240.382 61.712C239.166 61.2 238.43 60.592 238.174 59.888C237.79 57.84 237.598 56.016 237.598 54.416C237.598 49.168 237.438 43.28 237.118 36.752C236.862 30.992 236.734 26.96 236.734 24.656C236.734 23.504 237.31 22.512 238.462 21.68C239.614 20.848 240.83 20.432 242.109 20.432C243.966 20.432 245.246 20.848 245.95 21.68C246.718 22.512 247.102 23.824 247.102 25.616V42.896ZM258.32 40.304C258.32 38 258.736 35.856 259.568 33.872C260.4 31.824 261.616 29.712 263.216 27.536C264.816 25.36 267.024 23.664 269.84 22.448C272.656 21.168 275.728 20.528 279.056 20.528C281.616 20.528 284.08 21.072 286.448 22.16C288.88 23.184 291.056 24.464 292.976 26C293.232 26.448 293.68 27.28 294.32 28.496C294.96 29.648 295.408 30.704 295.664 31.664C295.984 32.624 296.144 33.616 296.144 34.64C296.144 38.928 294.576 41.808 291.44 43.28C288.304 44.688 284.336 45.392 279.536 45.392C274.736 45.392 270.832 45.072 267.824 44.432C267.952 45.648 268.272 46.864 268.784 48.08C269.296 49.296 269.904 50.224 270.608 50.864C271.888 52.08 273.136 52.88 274.352 53.264C275.632 53.584 277.328 53.744 279.44 53.744C282.64 53.744 285.136 53.136 286.928 51.92C288.592 50.832 289.872 50.288 290.768 50.288C291.984 50.288 292.912 50.672 293.552 51.44C294.192 52.144 294.512 53.072 294.512 54.224C294.512 56.656 292.944 58.64 289.808 60.176C286.736 61.712 283.248 62.48 279.344 62.48C276.272 62.48 273.232 61.936 270.224 60.848C267.216 59.76 264.816 58.224 263.024 56.24C261.808 54.192 260.72 51.696 259.76 48.752C258.8 45.808 258.32 42.992 258.32 40.304ZM279.44 28.4C278.032 28.4 276.56 28.656 275.024 29.168C273.552 29.616 272.4 30.32 271.568 31.28C270.544 32.368 269.776 33.36 269.264 34.256C268.816 35.152 268.528 36.272 268.4 37.616C269.104 37.616 269.776 37.648 270.416 37.712C271.056 37.776 271.664 37.84 272.24 37.904C275.056 38.16 277.168 38.288 278.576 38.288C281.392 38.288 283.536 37.872 285.008 37.04C286.544 36.208 287.312 35.088 287.312 33.68C287.312 32.336 286.448 31.12 284.72 30.032C283.056 28.944 281.296 28.4 279.44 28.4ZM349.177 54.608C349.497 54.736 350.009 54.896 350.713 55.088C351.417 55.28 351.929 55.472 352.249 55.664C352.569 55.856 352.729 56.144 352.729 56.528C352.793 58.064 352.217 59.344 351 60.368C349.849 61.328 348.473 61.808 346.873 61.808C344.377 61.808 342.425 61.136 341.017 59.792C339.609 58.448 338.585 56.4 337.945 53.648C337.689 52.56 337.561 51.056 337.561 49.136C337.561 48.048 337.625 46.288 337.753 43.856C337.881 41.296 337.945 39.248 337.945 37.712C337.945 35.472 337.305 33.52 336.025 31.856C334.809 30.128 333.081 29.264 330.841 29.264C329.497 29.264 328.089 29.68 326.617 30.512C325.145 31.28 324.121 32.24 323.545 33.392C322.585 35.248 321.913 37.264 321.529 39.44C320.825 43.28 320.473 47.28 320.473 51.44C320.473 53.424 320.505 54.96 320.569 56.048C320.569 56.304 320.569 56.816 320.569 57.584C320.633 58.288 320.569 58.96 320.377 59.6C320.249 60.176 319.993 60.72 319.609 61.232C319.289 61.552 318.777 61.808 318.073 62C317.433 62.256 316.825 62.384 316.249 62.384C315.353 62.384 314.233 62 312.889 61.232C311.545 60.464 310.777 59.6 310.585 58.64L310.489 57.008C310.489 56.432 310.553 55.76 310.681 54.992C311.449 50.512 311.833 46.608 311.833 43.28C311.833 41.808 311.801 40.656 311.737 39.824L311.641 35.312C311.641 33.776 311.257 32.304 310.489 30.896C309.721 29.424 308.825 28.688 307.801 28.688C307.481 28.688 307.033 28.816 306.457 29.072C305.881 29.264 305.401 29.36 305.017 29.36C304.377 29.36 303.673 29.04 302.905 28.4C302.201 27.76 301.849 27.088 301.849 26.384C301.849 25.04 302.297 23.952 303.193 23.12C304.153 22.352 305.081 21.744 305.977 21.296C306.937 20.848 308.025 20.624 309.241 20.624C310.265 20.624 311.097 20.72 311.737 20.912C312.377 21.104 313.241 21.52 314.329 22.16C314.905 22.48 315.577 23.184 316.345 24.272C317.113 25.36 317.753 26.896 318.265 28.88C319.929 25.808 321.977 23.664 324.409 22.448C326.905 21.168 330.073 20.528 333.913 20.528C335.385 20.528 336.953 21.008 338.617 21.968C340.345 22.928 341.817 24.048 343.033 25.328C344.185 26.736 345.145 28.496 345.913 30.608C346.681 32.656 347.065 34.512 347.065 36.176C347.065 37.136 347.001 38.704 346.873 40.88C346.681 42.608 346.585 44.432 346.585 46.352C346.585 50.832 347.449 53.584 349.177 54.608ZM389.538 32.912C388.578 32.912 387.746 32.688 387.042 32.24C386.402 31.728 385.73 31.056 385.026 30.224C384.322 29.392 383.554 28.848 382.722 28.592C381.954 28.336 381.058 28.208 380.034 28.208C378.178 28.208 376.354 28.784 374.562 29.936C372.834 31.024 371.394 32.56 370.242 34.544C369.154 36.528 368.61 38.736 368.61 41.168C368.61 43.856 369.122 46.096 370.146 47.888C371.234 49.68 372.93 51.248 375.234 52.592C376.066 53.04 377.026 53.392 378.114 53.648C379.266 53.904 380.258 54.032 381.09 54.032C383.074 54.032 385.634 53.168 388.77 51.44C389.026 51.312 389.506 51.088 390.21 50.768C390.978 50.384 391.554 50.192 391.938 50.192C392.642 50.192 393.442 50.544 394.338 51.248C395.234 51.888 395.682 52.688 395.682 53.648C395.682 55.568 394.85 57.2 393.186 58.544C391.586 59.888 389.57 60.88 387.138 61.52C384.706 62.16 382.306 62.48 379.938 62.48C376.162 62.48 372.642 61.616 369.378 59.888C366.114 58.16 363.522 55.76 361.602 52.688C359.682 49.616 358.722 46.16 358.722 42.32C358.722 38.16 359.65 34.416 361.506 31.088C363.362 27.696 365.858 25.04 368.994 23.12C372.194 21.136 375.65 20.144 379.362 20.144C382.946 20.144 386.242 20.848 389.25 22.256C392.322 23.664 393.858 25.808 393.858 28.688C393.858 31.504 392.418 32.912 389.538 32.912ZM402.601 41.648C402.601 39.216 403.049 36.784 403.945 34.352C404.841 31.856 406.025 29.584 407.497 27.536C408.969 25.488 411.305 23.824 414.505 22.544C417.705 21.2 420.553 20.528 423.049 20.528C425.609 20.528 428.201 20.88 430.825 21.584C433.513 22.288 435.369 23.376 436.393 24.848C438.761 28.176 439.945 31.44 439.945 34.64C439.945 36.368 439.561 37.84 438.793 39.056C438.089 40.272 437.065 41.584 435.721 42.992C434.633 44.144 432.905 44.912 430.537 45.296C428.233 45.68 425.929 45.872 423.625 45.872C422.153 45.872 420.361 45.744 418.249 45.488C416.137 45.168 414.089 44.784 412.105 44.336C412.233 45.616 412.553 46.864 413.065 48.08C413.577 49.296 414.185 50.224 414.889 50.864C416.169 52.08 417.481 52.848 418.825 53.168C420.233 53.488 422.025 53.648 424.201 53.648C426.505 53.648 428.649 53.264 430.633 52.496C432.233 51.92 433.545 51.632 434.569 51.632C435.785 51.632 436.713 52.016 437.353 52.784C437.993 53.488 438.313 54.416 438.313 55.568C438.313 57.168 437.385 58.48 435.529 59.504C433.673 60.528 431.529 61.296 429.097 61.808C426.729 62.256 424.809 62.48 423.337 62.48C420.329 62.48 417.417 61.936 414.601 60.848C411.785 59.76 409.449 58.224 407.593 56.24C406.057 54.448 404.841 52.304 403.945 49.808C403.049 47.248 402.601 44.528 402.601 41.648ZM423.529 28.688C422.121 28.688 420.713 28.976 419.305 29.552C417.897 30.064 416.745 30.8 415.849 31.76C414.697 32.976 413.897 33.968 413.449 34.736C413.065 35.44 412.809 36.432 412.681 37.712C414.281 38.224 417.609 38.48 422.665 38.48C425.417 38.48 427.529 38.064 429.001 37.232C430.537 36.4 431.305 35.312 431.305 33.968C431.305 32.624 430.473 31.408 428.809 30.32C427.145 29.232 425.385 28.688 423.529 28.688ZM0.0560001 121.032C0.0560001 118.28 2.072 116.904 6.104 116.904C7.832 116.904 11.128 116.968 15.992 117.096C21.368 117.352 25.432 117.48 28.184 117.48C30.424 117.48 33.144 117.352 36.344 117.096C38.52 116.968 39.896 116.904 40.472 116.904C43.992 117.032 46.968 117.672 49.4 118.824C50.104 119.144 50.68 119.528 51.128 119.976C51.576 120.424 51.8 121.16 51.8 122.184C51.8 123.592 51.352 124.808 50.456 125.832C49.56 126.792 48.472 127.272 47.192 127.272C45.784 127.272 43.736 127.08 41.048 126.696C38.68 126.248 36.6 126.024 34.808 126.024C33.08 126.024 31.768 126.056 30.872 126.12C30.68 128.232 30.584 133.288 30.584 141.288C30.584 150.824 30.872 160.488 31.448 170.28L31.64 173.064C31.64 175.688 30.136 177 27.128 177C24.76 177 23.16 176.456 22.328 175.368C21.496 174.216 21.08 172.488 21.08 170.184C21.08 165.64 20.952 159.976 20.696 153.192C20.44 147.56 20.312 143.56 20.312 141.192C20.312 139.592 20.504 134.696 20.888 126.504L9.656 126.6C6.072 126.6 3.576 126.28 2.168 125.64C0.76 124.936 0.0560001 123.4 0.0560001 121.032ZM69.5165 116.136C69.5165 117.8 69.4845 119.752 69.4205 121.992C69.3565 124.168 69.2925 125.832 69.2285 126.984C69.0365 130.248 68.9405 133.512 68.9405 136.776C68.9405 139.208 69.0365 141.736 69.2285 144.36C71.2125 141.48 73.3565 139.368 75.6605 138.024C77.9645 136.68 80.7485 136.008 84.0125 136.008C86.3805 136.008 88.5885 137.064 90.6365 139.176C92.6845 141.288 93.9965 143.752 94.5725 146.568C94.7645 149.064 94.8605 152.104 94.8605 155.688C94.8605 157.992 94.9885 161 95.2445 164.712C95.3725 166.12 95.7245 167.432 96.3005 168.648C96.9405 169.864 97.8365 170.472 98.9885 170.472C99.5645 170.472 100.013 170.44 100.333 170.376C100.717 170.312 101.069 170.28 101.389 170.28C102.285 170.28 102.893 170.504 103.213 170.952C103.597 171.4 103.789 172.04 103.789 172.872C103.789 174.408 103.021 175.56 101.485 176.328C99.9485 177.096 98.5405 177.48 97.2605 177.48C92.6525 177.48 89.4845 175.56 87.7565 171.72C86.7965 169.544 86.1885 166.728 85.9325 163.272C85.6765 159.752 85.5485 155.656 85.5485 150.984C85.5485 146.376 83.9805 144.072 80.8445 144.072C79.1165 144.072 77.3565 145 75.5645 146.856C73.8365 148.648 72.3965 151.048 71.2445 154.056C70.0925 157 69.5165 160.072 69.5165 163.272L69.6125 173.256C69.6125 174.664 69.0685 175.72 67.9805 176.424C66.8925 177.064 65.8685 177.384 64.9085 177.384C63.5005 177.384 62.2205 176.968 61.0685 176.136C59.9165 175.24 59.3405 174.248 59.3405 173.16C59.7885 168.36 60.0125 160.328 60.0125 149.064C60.0125 147.016 59.8525 139.432 59.5325 126.312L59.2445 117.48C59.2445 116.072 59.8845 114.856 61.1645 113.832C62.4445 112.744 63.8845 112.2 65.4845 112.2C66.8925 112.2 67.9165 112.52 68.5565 113.16C69.1965 113.8 69.5165 114.792 69.5165 116.136ZM108.789 156.648C108.789 154.216 109.237 151.784 110.133 149.352C111.029 146.856 112.213 144.584 113.685 142.536C115.157 140.488 117.493 138.824 120.693 137.544C123.893 136.2 126.741 135.528 129.237 135.528C131.797 135.528 134.389 135.88 137.013 136.584C139.701 137.288 141.557 138.376 142.581 139.848C144.949 143.176 146.133 146.44 146.133 149.64C146.133 151.368 145.749 152.84 144.981 154.056C144.277 155.272 143.253 156.584 141.909 157.992C140.821 159.144 139.093 159.912 136.725 160.296C134.421 160.68 132.117 160.872 129.813 160.872C128.341 160.872 126.549 160.744 124.437 160.488C122.325 160.168 120.277 159.784 118.293 159.336C118.421 160.616 118.741 161.864 119.253 163.08C119.765 164.296 120.373 165.224 121.077 165.864C122.357 167.08 123.669 167.848 125.013 168.168C126.421 168.488 128.213 168.648 130.389 168.648C132.693 168.648 134.837 168.264 136.821 167.496C138.421 166.92 139.733 166.632 140.757 166.632C141.973 166.632 142.901 167.016 143.541 167.784C144.181 168.488 144.501 169.416 144.501 170.568C144.501 172.168 143.573 173.48 141.717 174.504C139.861 175.528 137.717 176.296 135.285 176.808C132.917 177.256 130.997 177.48 129.525 177.48C126.517 177.48 123.605 176.936 120.789 175.848C117.973 174.76 115.637 173.224 113.781 171.24C112.245 169.448 111.029 167.304 110.133 164.808C109.237 162.248 108.789 159.528 108.789 156.648ZM129.717 143.688C128.309 143.688 126.901 143.976 125.493 144.552C124.085 145.064 122.933 145.8 122.037 146.76C120.885 147.976 120.085 148.968 119.637 149.736C119.253 150.44 118.997 151.432 118.869 152.712C120.469 153.224 123.797 153.48 128.853 153.48C131.605 153.48 133.717 153.064 135.189 152.232C136.725 151.4 137.493 150.312 137.493 148.968C137.493 147.624 136.661 146.408 134.997 145.32C133.333 144.232 131.573 143.688 129.717 143.688ZM176.773 143.976C175.173 142.632 174.373 141.064 174.373 139.272C174.373 138.376 174.821 137.576 175.717 136.872C176.613 136.104 177.701 135.72 178.981 135.72C181.285 135.72 183.173 136.328 184.645 137.544C186.117 138.76 187.397 140.52 188.485 142.824C189.829 140.328 191.525 138.504 193.573 137.352C195.685 136.136 198.341 135.528 201.541 135.528C203.461 135.528 204.997 135.784 206.149 136.296C207.365 136.744 208.357 137.416 209.125 138.312C209.893 139.144 210.853 140.424 212.005 142.152C213.669 140.104 215.749 138.504 218.245 137.352C220.805 136.2 223.429 135.624 226.117 135.624C229.253 135.624 232.101 136.936 234.661 139.56C237.285 142.184 239.045 145.16 239.941 148.488C240.261 149.896 240.485 153.224 240.613 158.472L240.997 164.04C241.317 167.432 242.405 169.448 244.261 170.088C245.157 170.344 245.893 170.664 246.469 171.048C247.109 171.368 247.429 171.72 247.429 172.104C247.557 173.64 247.205 174.76 246.373 175.464C245.797 175.848 244.997 176.264 243.973 176.712C242.949 177.16 242.149 177.384 241.573 177.384C238.117 177.384 235.653 176.136 234.181 173.64C233.221 171.976 232.613 170.088 232.357 167.976C232.101 165.8 231.973 162.856 231.973 159.144C231.973 155.176 231.493 151.784 230.533 148.968C229.573 146.088 227.397 144.648 224.005 144.648C222.789 144.648 221.573 145.032 220.357 145.8C219.205 146.504 218.373 147.4 217.861 148.488C216.965 150.216 216.357 152.104 216.037 154.152C215.717 156.136 215.557 158.44 215.557 161.064C215.557 162.728 215.653 164.424 215.845 166.152C215.845 166.664 215.877 167.496 215.941 168.648C216.069 169.736 216.133 170.728 216.133 171.624C216.133 173.224 215.813 174.6 215.173 175.752C214.597 176.84 213.573 177.384 212.101 177.384C208.581 177.384 206.725 175.528 206.533 171.816C206.533 169.192 206.565 167.784 206.629 167.592V163.464C206.629 161.16 206.533 158.92 206.341 156.744C206.149 154.568 205.925 152.936 205.669 151.848C205.093 149.736 204.325 148.104 203.365 146.952C202.405 145.8 200.933 145.224 198.949 145.224C197.605 145.224 196.357 145.544 195.205 146.184C194.053 146.824 193.061 147.72 192.229 148.872C191.013 150.792 190.213 153.128 189.829 155.88C189.445 159.4 189.157 162.184 188.965 164.232C188.837 166.216 188.773 168.52 188.773 171.144C188.773 173 188.453 174.504 187.813 175.656C187.237 176.808 186.117 177.384 184.453 177.384C183.237 177.384 181.957 177.064 180.613 176.424C179.333 175.72 178.693 174.792 178.693 173.64C178.693 172.424 178.821 171.208 179.077 169.992C179.653 166.344 179.941 160.136 179.941 151.368C179.941 149.96 179.621 148.584 178.981 147.24C178.405 145.832 177.669 144.744 176.773 143.976ZM290.599 177.384C288.423 177.384 286.759 177.064 285.607 176.424C284.455 175.72 283.207 174.44 281.863 172.584C280.199 174.056 277.703 175.24 274.375 176.136C271.111 177.032 268.295 177.48 265.927 177.48C262.023 177.48 258.855 176.424 256.423 174.312C254.055 172.136 252.871 168.968 252.871 164.808C252.871 163.016 253.351 161.384 254.311 159.912C255.335 158.376 256.647 157.032 258.247 155.88C260.039 154.664 262.151 153.704 264.583 153C267.079 152.296 269.351 151.944 271.399 151.944C274.855 151.944 277.927 152.264 280.615 152.904V152.808C280.615 149.352 279.751 146.984 278.023 145.704C276.359 144.36 273.671 143.688 269.959 143.688C267.591 143.688 265.543 144.744 263.815 146.856C263.175 147.688 261.831 148.104 259.783 148.104C258.759 148.104 257.991 147.688 257.479 146.856C257.031 145.96 256.807 145.064 256.807 144.168C256.807 142.312 257.575 140.712 259.111 139.368C260.711 138.024 262.631 137.032 264.871 136.392C267.111 135.688 269.191 135.336 271.111 135.336C272.967 135.336 275.175 135.72 277.735 136.488C280.295 137.256 282.375 138.28 283.975 139.56C285.895 141.224 287.367 143.176 288.391 145.416C289.479 147.592 290.023 149.992 290.023 152.616C290.023 153.448 289.959 154.696 289.831 156.36C289.703 158.28 289.639 159.848 289.639 161.064C289.639 161.64 289.575 162.376 289.447 163.272C289.319 164.424 289.255 165.384 289.255 166.152C289.255 166.984 289.511 167.784 290.023 168.552C290.535 169.32 291.239 169.96 292.135 170.472C292.967 170.92 293.511 171.4 293.767 171.912C294.023 172.424 294.151 173 294.151 173.64C294.151 174.28 293.735 175.08 292.903 176.04C292.135 176.936 291.367 177.384 290.599 177.384ZM271.399 159.048C268.903 159.048 266.695 159.528 264.775 160.488C262.855 161.448 261.895 163.144 261.895 165.576C261.895 166.792 262.311 167.816 263.143 168.648C264.039 169.48 264.999 169.896 266.023 169.896C268.775 169.896 271.079 169.608 272.935 169.032C274.791 168.456 277.031 167.4 279.655 165.864C279.975 164.84 280.167 163.4 280.231 161.544C280.231 160.84 280.263 160.296 280.327 159.912C276.871 159.336 273.895 159.048 271.399 159.048ZM308.569 175.56C308.121 174.6 307.897 173.48 307.897 172.2C307.897 170.984 308.793 169.16 310.585 166.728C307.513 165.704 305.081 163.88 303.289 161.256C301.561 158.632 300.697 155.56 300.697 152.04C300.697 149.736 301.241 147.656 302.329 145.8C303.417 143.88 304.921 142.056 306.841 140.328C310.105 137.384 314.617 135.912 320.377 135.912C322.681 135.912 325.529 136.424 328.921 137.448C332.953 133.992 336.505 132.264 339.577 132.264C341.497 132.264 342.873 132.648 343.705 133.416C344.601 134.12 345.049 135.368 345.049 137.16C345.049 137.864 344.761 138.536 344.185 139.176C343.673 139.752 343.001 140.04 342.169 140.04L338.713 139.944C336.537 139.944 334.969 140.36 334.009 141.192C335.225 142.664 336.217 144.552 336.985 146.856C337.817 149.16 338.233 151.784 338.233 154.728C338.233 158.632 335.545 162.28 330.169 165.672C326.841 167.464 322.969 168.392 318.553 168.456C318.041 168.968 317.593 169.448 317.209 169.896C316.889 170.28 316.729 170.6 316.729 170.856C316.729 171.56 317.337 172.104 318.553 172.488C319.769 172.872 321.625 173.16 324.121 173.352C325.977 173.48 328.057 173.896 330.361 174.6C332.729 175.24 334.585 175.976 335.929 176.808C337.593 178.024 338.745 179.336 339.385 180.744C340.089 182.152 340.441 183.912 340.441 186.024C340.441 188.776 339.161 191.08 336.601 192.936C334.105 194.856 331.161 196.264 327.769 197.16C324.377 198.056 321.401 198.504 318.841 198.504C315.769 198.504 313.145 198.12 310.969 197.352C308.857 196.648 306.841 195.656 304.921 194.376C303.577 193.416 302.521 192.2 301.753 190.728C300.985 189.256 300.601 187.72 300.601 186.12C300.601 184.84 301.561 183.112 303.481 180.936C305.465 178.76 307.385 177.256 309.241 176.424C309.049 176.232 308.825 175.944 308.569 175.56ZM318.265 160.584C321.273 160.584 323.801 159.784 325.849 158.184C327.897 156.52 328.921 154.248 328.921 151.368C328.921 149.064 328.249 147.24 326.905 145.896C325.561 144.488 323.673 143.784 321.241 143.784C316.185 143.784 312.889 144.904 311.353 147.144C310.969 147.656 310.585 148.648 310.201 150.12C309.817 151.528 309.625 152.616 309.625 153.384C309.625 154.472 310.009 155.592 310.777 156.744C311.609 157.832 312.697 158.76 314.041 159.528C315.385 160.232 316.793 160.584 318.265 160.584ZM309.625 186.792C309.625 187.88 310.617 188.808 312.601 189.576C314.649 190.408 316.825 190.824 319.129 190.824C321.689 190.824 324.313 190.344 327.001 189.384C329.753 188.488 331.129 187.272 331.129 185.736C331.129 183.496 329.145 182.056 325.177 181.416C320.825 180.648 317.401 179.944 314.905 179.304C314.649 180.2 313.785 181.352 312.313 182.76C311.353 183.72 310.649 184.456 310.201 184.968C309.817 185.544 309.625 186.152 309.625 186.792ZM355.292 115.368C357.532 115.56 359.452 116.168 361.052 117.192C362.716 118.152 363.548 119.624 363.548 121.608C363.548 123.08 362.876 124.264 361.532 125.16C360.188 125.992 358.524 126.408 356.54 126.408C354.684 126.408 353.404 125.928 352.7 124.968C351.996 124.008 351.644 123.016 351.644 121.992C351.644 120.136 351.868 118.568 352.316 117.288C352.764 115.944 353.756 115.304 355.292 115.368ZM353.372 155.016V152.232C353.372 149.032 353.212 146.12 352.892 143.496C352.636 140.808 352.476 139.144 352.412 138.504C352.476 137.8 352.956 137.128 353.852 136.488C354.748 135.848 355.548 135.528 356.252 135.528C357.468 135.528 358.684 135.784 359.9 136.296C361.18 136.744 361.98 137.32 362.3 138.024C362.62 140.392 362.78 142.216 362.78 143.496C362.78 146.312 362.908 150.92 363.164 157.32L363.26 161.064L363.452 164.712C363.516 165.736 363.58 166.952 363.644 168.36C363.708 169.768 363.74 171.368 363.74 173.16C363.74 174.376 363.132 175.4 361.916 176.232C360.764 177.064 359.548 177.48 358.268 177.48C356.412 177.48 355.1 177.064 354.332 176.232C353.628 175.4 353.276 174.088 353.276 172.296L353.372 155.016ZM409.043 144.936C409.043 147.752 407.603 149.16 404.723 149.16C403.763 149.16 402.963 148.936 402.323 148.488C401.683 148.04 400.979 147.368 400.211 146.472C398.291 144.36 396.627 143.304 395.219 143.304C393.363 143.304 391.539 143.848 389.747 144.936C388.019 146.024 386.611 147.56 385.523 149.544C384.435 151.528 383.891 153.736 383.891 156.168C383.891 158.856 384.403 161.096 385.427 162.888C386.515 164.68 388.179 166.216 390.419 167.496C391.251 167.944 392.211 168.296 393.299 168.552C394.451 168.808 395.443 168.936 396.275 168.936C398.131 168.936 400.467 168.2 403.283 166.728C404.307 166.216 405.171 165.832 405.875 165.576C406.579 165.32 407.315 165.192 408.083 165.192C408.787 165.192 409.587 165.512 410.483 166.152C411.379 166.792 411.827 167.592 411.827 168.552C411.827 170.472 410.931 172.104 409.139 173.448C407.347 174.728 405.139 175.72 402.515 176.424C399.955 177.064 397.491 177.384 395.123 177.384C391.347 177.384 387.827 176.52 384.563 174.792C381.363 173.064 378.803 170.696 376.883 167.688C374.963 164.616 374.003 161.16 374.003 157.32C374.003 153.224 374.931 149.48 376.787 146.088C378.643 142.696 381.139 140.04 384.275 138.12C387.411 136.2 390.835 135.24 394.547 135.24C396.659 135.24 398.835 135.624 401.075 136.392C403.315 137.16 405.203 138.28 406.739 139.752C408.275 141.224 409.043 142.952 409.043 144.936ZM479.542 146.184C480.054 147.08 480.47 148.392 480.79 150.12C481.11 151.784 481.27 153.288 481.27 154.632C481.27 157.128 480.726 160.68 479.638 165.288C475.222 173.352 468.694 177.384 460.054 177.384C456.854 177.384 453.59 176.328 450.262 174.216C446.934 172.104 444.63 169.672 443.35 166.92C441.622 161.416 440.758 157.928 440.758 156.456C440.758 153.896 441.302 151.176 442.39 148.296C443.542 145.416 444.982 142.92 446.71 140.808C447.798 139.336 449.75 138.088 452.566 137.064C455.382 135.976 457.942 135.432 460.246 135.432C464.726 135.432 468.534 136.296 471.67 138.024C474.806 139.688 477.43 142.408 479.542 146.184ZM471.19 161.64C471.51 160.808 471.67 158.664 471.67 155.208C471.67 153.352 471.318 151.528 470.614 149.736C469.974 147.944 469.014 146.408 467.734 145.128C467.606 145 467.254 144.808 466.678 144.552C466.102 144.232 465.302 143.944 464.278 143.688C463.318 143.368 462.198 143.208 460.918 143.208C457.334 143.208 454.71 144.648 453.046 147.528C451.382 150.408 450.549 153.672 450.549 157.32C450.549 157.96 450.71 159.176 451.03 160.968C451.414 162.76 451.734 163.88 451.99 164.328C452.182 164.776 452.662 165.416 453.43 166.248C454.262 167.016 455.254 167.72 456.406 168.36C457.622 168.936 458.87 169.224 460.15 169.224C463.03 169.224 465.334 168.552 467.062 167.208C468.79 165.8 470.166 163.944 471.19 161.64ZM510.427 120.456C508.507 120.456 507.323 122.056 506.875 125.256C506.427 129.608 506.203 132.904 506.203 135.144C507.483 135.272 508.827 135.336 510.234 135.336C511.131 135.336 512.283 135.272 513.691 135.144L516.187 135.048C517.467 135.048 518.427 135.272 519.067 135.72C519.707 136.168 520.027 136.904 520.027 137.928C520.027 139.336 519.547 140.552 518.587 141.576C517.691 142.536 516.635 143.016 515.419 143.016C510.811 143.016 507.707 143.24 506.107 143.688C506.107 147.592 506.299 153.128 506.683 160.296L506.875 165L507.259 172.488C507.387 174.344 507.195 175.656 506.683 176.424C506.235 177.128 505.243 177.48 503.707 177.48C500.891 177.48 499.067 175.784 498.234 172.392C497.723 169.896 497.307 166.408 496.987 161.928C496.667 157.448 496.507 153.448 496.507 149.928C496.507 148.072 496.603 145.96 496.795 143.592C496.667 143.528 496.315 143.496 495.739 143.496C495.163 143.496 494.747 143.528 494.491 143.592C492.571 143.72 491.163 143.784 490.267 143.784C489.691 143.784 489.115 143.4 488.539 142.632C487.963 141.8 487.675 140.808 487.675 139.656C487.675 139.016 487.899 138.44 488.347 137.928C488.795 137.352 489.339 136.936 489.979 136.68C490.939 136.168 492.315 135.912 494.107 135.912L496.987 136.008C496.987 126.92 498.011 120.616 500.059 117.096C501.979 113.768 505.147 112.104 509.562 112.104C512.123 112.104 514.459 112.744 516.571 114.024C517.467 114.6 518.139 115.304 518.587 116.136C519.099 116.968 519.355 117.768 519.355 118.536C519.355 119.496 518.971 120.488 518.203 121.512C517.499 122.536 516.411 123.048 514.939 123.048C514.363 123.048 513.627 122.6 512.731 121.704C512.411 121.384 512.059 121.096 511.675 120.84C511.291 120.584 510.875 120.456 510.427 120.456ZM30.488 238.72C29.848 238.72 29.304 238.592 28.856 238.336C28.472 238.016 27.992 237.536 27.416 236.896C26.84 236.256 26.264 235.776 25.688 235.456C25.176 235.072 24.504 234.88 23.672 234.88C23.032 234.88 22.36 235.36 21.656 236.32C20.952 237.216 20.472 238.656 20.216 240.64C19.768 244.8 19.544 248.16 19.544 250.72C21.016 250.912 23.256 251.008 26.264 251.008H29.624C30.776 251.008 31.672 251.232 32.312 251.68C32.952 252.128 33.272 252.864 33.272 253.888C33.272 255.36 32.824 256.576 31.928 257.536C31.032 258.496 29.976 258.976 28.76 258.976C24.728 258.976 21.624 258.88 19.448 258.688C19.256 262.208 19.16 266.016 19.16 270.112C19.16 275.872 19.352 281.632 19.736 287.392C19.8 289.12 19.448 290.4 18.68 291.232C17.912 292 16.664 292.384 14.936 292.384C13.912 292.384 13.144 292.16 12.632 291.712C12.12 291.264 11.736 290.784 11.48 290.272C11.288 289.696 11.032 288.704 10.712 287.296C10.2 284.672 9.944 279.744 9.944 272.512V264.544C9.944 262.752 10.04 260.672 10.232 258.304C9.72 258.304 8.76 258.304 7.352 258.304C6.008 258.24 4.792 258.08 3.704 257.824C3.128 257.632 2.552 257.152 1.976 256.384C1.4 255.616 1.112 254.688 1.112 253.6C1.112 252.96 1.336 252.352 1.784 251.776C2.232 251.2 2.776 250.784 3.416 250.528C3.8 250.336 4.248 250.24 4.76 250.24C5.208 250.24 5.656 250.304 6.104 250.432C6.616 250.496 7.096 250.528 7.544 250.528L10.424 250.624C10.424 241.92 11.416 235.808 13.4 232.288C15.32 228.96 18.488 227.296 22.904 227.296C24.312 227.296 25.976 227.584 27.896 228.16C29.88 228.672 31.576 229.472 32.984 230.56C34.456 231.584 35.192 232.832 35.192 234.304C35.192 235.392 34.712 236.416 33.752 237.376C32.856 238.272 31.768 238.72 30.488 238.72ZM51.215 277.12C51.215 279.552 51.567 281.44 52.271 282.784C53.039 284.064 53.999 284.704 55.151 284.704C55.791 284.704 56.399 284.672 56.975 284.608C57.551 284.48 58.127 284.416 58.703 284.416C59.343 284.416 59.887 284.736 60.335 285.376C60.847 286.016 61.103 286.72 61.103 287.488C61.103 289.024 60.367 290.24 58.895 291.136C57.487 291.968 55.567 292.384 53.135 292.384C51.407 292.384 49.647 291.872 47.855 290.848C46.127 289.76 44.687 288.096 43.535 285.856C42.383 283.552 41.807 280.704 41.807 277.312C41.807 270.016 41.935 263.84 42.191 258.784C42.511 252.768 42.671 245.184 42.671 236.032C42.671 233.152 42.831 231.136 43.151 229.984C43.535 229.088 44.143 228.416 44.975 227.968C45.871 227.456 46.799 227.2 47.759 227.2C48.719 227.2 49.551 227.36 50.255 227.68C51.023 228 51.535 228.512 51.791 229.216C52.047 229.984 52.207 230.752 52.271 231.52C52.399 232.224 52.463 233.248 52.463 234.592C52.463 237.216 52.367 239.744 52.175 242.176C52.047 245.12 51.983 247.264 51.983 248.608C51.471 259.872 51.215 269.376 51.215 277.12ZM72.5465 230.368C74.7865 230.56 76.7385 231.168 78.4025 232.192C80.0665 233.152 80.8985 234.624 80.8985 236.608C80.8985 238.08 80.1945 239.264 78.7865 240.16C77.4425 240.992 75.8105 241.408 73.8905 241.408C72.0345 241.408 70.7545 240.928 70.0505 239.968C69.3465 239.008 68.9945 238.016 68.9945 236.992C68.9945 235.072 69.1865 233.472 69.5705 232.192C70.0185 230.912 71.0105 230.304 72.5465 230.368ZM80.2265 272.896V275.68C80.2265 278.176 80.2905 280.544 80.4185 282.784C80.6105 284.96 80.8345 287.168 81.0905 289.408C81.0905 290.176 80.6425 290.88 79.7465 291.52C78.8505 292.096 78.0185 292.384 77.2505 292.384C76.0345 292.384 74.7865 292.16 73.5065 291.712C72.2905 291.2 71.5545 290.592 71.2985 289.888C70.9145 287.84 70.7225 286.016 70.7225 284.416C70.7225 279.168 70.5625 273.28 70.2425 266.752C69.9865 260.992 69.8585 256.96 69.8585 254.656C69.8585 253.504 70.4345 252.512 71.5865 251.68C72.7385 250.848 73.9545 250.432 75.2345 250.432C77.0905 250.432 78.3705 250.848 79.0745 251.68C79.8425 252.512 80.2265 253.824 80.2265 255.616V272.896ZM129.077 267.904C129.077 270.848 128.341 273.344 126.869 275.392C125.397 277.376 123.445 279.136 121.013 280.672C117.685 282.464 113.813 283.392 109.397 283.456C109.141 284.224 109.013 285.024 109.013 285.856C109.013 286.624 109.429 287.2 110.261 287.584C111.157 287.904 112.725 288.16 114.965 288.352C116.821 288.48 118.901 288.896 121.205 289.6C123.573 290.24 125.429 290.976 126.773 291.808C128.437 293.024 129.589 294.336 130.229 295.744C130.933 297.152 131.285 298.912 131.285 301.024C131.285 303.776 130.005 306.08 127.445 307.936C124.949 309.856 122.005 311.264 118.613 312.16C115.221 313.056 112.245 313.504 109.685 313.504C106.613 313.504 103.989 313.12 101.813 312.352C99.701 311.648 97.685 310.656 95.765 309.376C94.421 308.416 93.365 307.2 92.597 305.728C91.829 304.256 91.445 302.72 91.445 301.12C91.445 299.52 91.957 297.984 92.981 296.512C94.069 295.04 95.381 293.76 96.917 292.672C98.453 291.648 99.893 290.944 101.237 290.56C100.725 289.92 100.341 289.376 100.085 288.928C99.893 288.416 99.797 287.84 99.797 287.2C99.797 285.024 100.341 283.2 101.429 281.728C98.357 280.704 95.925 278.88 94.133 276.256C92.405 273.632 91.541 270.56 91.541 267.04C91.541 264.736 92.085 262.656 93.173 260.8C94.261 258.88 95.765 257.056 97.685 255.328C100.949 252.384 105.461 250.912 111.221 250.912C111.989 250.912 113.045 251.04 114.389 251.296C115.733 251.552 117.045 251.904 118.325 252.352C120.373 251.456 122.773 250.528 125.525 249.568C128.277 248.608 130.133 248.128 131.093 248.128C132.565 248.128 133.653 248.384 134.357 248.896C135.125 249.344 135.509 250.368 135.509 251.968C135.509 253.44 134.645 254.496 132.917 255.136C131.253 255.776 128.725 256.384 125.333 256.96C127.829 259.968 129.077 263.616 129.077 267.904ZM109.109 275.584C112.821 275.584 115.509 274.816 117.173 273.28C118.901 271.744 119.765 269.44 119.765 266.368C119.765 261.312 116.789 258.784 110.837 258.784C108.533 258.784 106.709 259.04 105.365 259.552C104.085 260.064 103.029 260.928 102.197 262.144C101.045 263.68 100.469 265.76 100.469 268.384C100.469 270.432 101.301 272.16 102.965 273.568C104.693 274.912 106.741 275.584 109.109 275.584ZM100.469 301.792C100.469 302.88 101.461 303.808 103.445 304.576C105.493 305.408 107.669 305.824 109.973 305.824C112.533 305.824 115.157 305.344 117.845 304.384C120.597 303.488 121.973 302.272 121.973 300.736C121.973 298.496 119.989 297.056 116.021 296.416C114.613 296.16 112.565 295.68 109.877 294.976C109.557 294.912 109.173 294.816 108.725 294.688C108.341 294.56 107.925 294.432 107.477 294.304C106.069 294.816 104.533 295.872 102.869 297.472C101.269 299.136 100.469 300.576 100.469 301.792ZM152.579 231.136C152.579 232.8 152.547 234.752 152.483 236.992C152.419 239.168 152.355 240.832 152.291 241.984C152.099 245.248 152.003 248.512 152.003 251.776C152.003 256.064 152.099 259.52 152.291 262.144C153.763 258.496 155.843 255.744 158.531 253.888C161.219 251.968 164.291 251.008 167.747 251.008C170.115 251.008 172.323 252.064 174.371 254.176C176.419 256.288 177.731 258.752 178.307 261.568C178.371 261.888 178.403 262.368 178.403 263.008C178.403 263.776 178.339 264.992 178.211 266.656C178.019 268 177.923 269.344 177.923 270.688C177.923 274.144 178.051 276.832 178.307 278.752C178.563 280.608 179.107 282.144 179.939 283.36C180.771 284.512 182.083 285.44 183.875 286.144C184.579 286.4 185.059 286.752 185.315 287.2C185.635 287.584 185.795 288.192 185.795 289.024C185.795 290.176 185.187 291.04 183.971 291.616C182.819 292.192 181.699 292.48 180.611 292.48C178.371 292.48 176.355 291.872 174.563 290.656C172.771 289.44 171.427 287.84 170.531 285.856C169.891 284.512 169.475 282.912 169.283 281.056C169.091 279.2 168.995 277.024 168.995 274.528L169.091 266.176C169.091 261.632 167.619 259.36 164.675 259.36C162.563 259.36 160.515 261.088 158.531 264.544C156.547 268 154.947 272.064 153.731 276.736C152.515 281.408 151.907 285.248 151.907 288.256C151.907 289.664 151.459 290.72 150.563 291.424C149.731 292.064 148.867 292.384 147.971 292.384C146.563 292.384 145.283 291.968 144.131 291.136C142.979 290.24 142.403 289.248 142.403 288.16C142.851 283.36 143.075 275.328 143.075 264.064C143.075 262.016 142.915 254.432 142.595 241.312L142.307 232.48C142.307 231.072 142.947 229.856 144.227 228.832C145.507 227.744 146.947 227.2 148.547 227.2C149.955 227.2 150.979 227.52 151.619 228.16C152.259 228.8 152.579 229.792 152.579 231.136ZM192.057 258.784C191.161 258.656 190.425 258.272 189.849 257.632C189.337 256.992 189.081 256.224 189.081 255.328C189.081 254.88 189.177 254.4 189.369 253.888C189.625 253.376 189.977 252.928 190.425 252.544C191.257 251.712 193.497 251.296 197.145 251.296C197.657 248.8 197.913 246.272 197.913 243.712C197.913 242.752 197.881 241.92 197.817 241.216C197.753 240.512 197.721 239.968 197.721 239.584C197.721 238.176 198.233 237.12 199.257 236.416C200.345 235.712 201.561 235.36 202.905 235.36C204.569 235.36 205.689 235.776 206.265 236.608C206.905 237.44 207.225 238.976 207.225 241.216C207.225 244.544 206.937 247.808 206.361 251.008C207.385 251.008 208.793 250.944 210.585 250.816C213.017 250.688 214.777 250.624 215.865 250.624C216.953 250.624 217.881 250.912 218.649 251.488C219.481 252 219.897 252.736 219.897 253.696C219.897 256.192 218.777 257.664 216.537 258.112C214.169 258.688 210.489 259.04 205.497 259.168C205.305 261.664 205.209 264.384 205.209 267.328C205.209 271.936 205.497 275.712 206.073 278.656C206.457 280.704 207.097 282.208 207.993 283.168C208.953 284.064 210.361 284.512 212.217 284.512C213.305 284.512 214.425 284.224 215.577 283.648C216.345 283.2 217.049 282.976 217.689 282.976C218.585 282.976 219.225 283.264 219.609 283.84C220.057 284.416 220.281 285.184 220.281 286.144C220.281 287.936 219.321 289.44 217.401 290.656C215.481 291.808 213.017 292.384 210.009 292.384C208.153 292.384 206.265 291.936 204.345 291.04C202.489 290.144 200.921 289.024 199.641 287.68C199.449 287.488 199.097 286.752 198.585 285.472C198.073 284.192 197.625 282.816 197.241 281.344C196.601 278.336 196.281 274.112 196.281 268.672C196.281 266.304 196.409 263.136 196.665 259.168L192.057 258.784ZM240.151 236.32C240.151 239.776 239.959 244.832 239.575 251.488C239.191 257.888 238.999 262.784 238.999 266.176C238.999 267.072 239.063 268.928 239.191 271.744C239.127 272.832 238.743 273.664 238.039 274.24C237.335 274.752 236.503 275.008 235.543 275.008C234.519 275.008 233.591 274.752 232.759 274.24C231.927 273.728 231.415 273.056 231.223 272.224C230.455 266.976 230.071 260.704 230.071 253.408L230.167 238.432C230.167 236.064 230.455 234.144 231.031 232.672C231.671 231.136 233.015 230.368 235.062 230.368C236.791 230.368 238.071 230.944 238.903 232.096C239.735 233.184 240.151 234.592 240.151 236.32ZM235.062 280C239.415 280 241.591 281.632 241.591 284.896C241.591 286.56 241.047 288.096 239.959 289.504C238.935 290.848 237.623 291.52 236.023 291.52C234.103 291.52 232.535 290.944 231.319 289.792C230.103 288.576 229.495 287.168 229.495 285.568C229.495 284.16 230.007 282.88 231.031 281.728C232.119 280.576 233.463 280 235.062 280Z" fill="#515151"/>
</svg>
